<svg width="250" height="250" viewBox="0 0 324 324" fill="none" xmlns="http://www.w3.org/2000/svg">
<g clip-path="url(#clip0_568_1043)">
<path d="M162.047 323.365C251.342 323.365 323.729 250.977 323.729 161.682C323.729 72.3876 251.342 0 162.047 0C72.7523 0 0.364624 72.3876 0.364624 161.682C0.364624 250.977 72.7523 323.365 162.047 323.365Z" fill="#F0F6FF"/>
<path d="M226.316 243.217C221.925 246.491 216.99 247.517 211.49 247.517C178.363 247.378 145.237 247.378 112.112 247.517C106.834 247.517 102.112 246.413 97.8731 243.243C92.0601 238.526 90.621 232.026 89.9993 224.982C88.821 211.739 87.2906 198.526 85.934 185.295C85.8384 184.334 85.3949 184.082 84.5254 183.921C79.608 183.021 74.708 182.047 69.7994 181.1C65.9863 180.365 63.4124 176.93 64.0254 173.395C64.608 170.039 68.2558 167.665 71.9949 168.274C73.9558 168.591 75.908 169.017 77.8385 169.413C78.5559 169.556 79.0254 169.704 79.2428 168.621C80.0385 164.708 82.9123 162.743 86.921 163.404C91.8514 164.221 96.7601 165.169 101.677 166.069C103.221 166.352 104.778 166.574 106.291 166.974C111.83 168.443 116.112 176.374 112.647 181.678C112.336 182.134 112.215 182.695 112.312 183.239C113.686 191.174 115.064 199.108 116.504 207.378C124.386 195.913 134.764 188.421 148.134 184.534C145.13 183.134 142.308 181.926 139.756 180.248C129.847 173.704 123.578 164.643 121.108 153.021C120.856 151.835 120.408 151.356 119.282 150.991C111.56 148.478 109.63 139.43 115.656 133.943C116.035 133.626 116.337 133.226 116.538 132.774C116.738 132.321 116.832 131.829 116.812 131.335C116.934 125.248 116.378 119.13 117.521 113.074C118.506 107.816 120.392 102.768 123.095 98.152C123.734 97.0651 123.791 96.3085 123.169 95.1868C121.177 91.6339 120.289 87.5684 120.617 83.5086C120.834 80.6347 121.734 80.1346 124.625 80.5346C130.69 81.3738 136.643 80.4216 142.577 79.1825C147.999 78.0564 153.299 76.3173 158.886 75.9999C174.786 75.0955 187.63 81.139 197.582 93.3564C204.403 101.735 207.582 111.482 207.408 122.326C207.351 125.343 207.438 128.361 207.377 131.382C207.339 131.85 207.418 132.319 207.606 132.749C207.794 133.178 208.086 133.554 208.456 133.843C215.269 139.748 211.634 149.313 204.708 151.065C204.281 151.126 203.886 151.326 203.586 151.636C203.285 151.945 203.096 152.345 203.047 152.774C199.773 167.73 191.003 178.117 176.921 184.056C176.639 184.215 176.37 184.395 176.116 184.595C189.303 188.447 199.703 195.9 207.612 207.439C208.821 200.4 209.943 193.761 211.09 187.13C211.525 184.591 211.686 182.261 210.79 179.6C208.747 173.513 213.608 167.4 220.682 166.308C225.821 165.517 230.947 164.595 236.06 163.634C241.173 162.674 243.529 163.956 245.103 169.021C245.395 169.961 245.908 169.487 246.308 169.421C248.264 169.091 250.221 168.63 252.16 168.334C255.808 167.782 259.442 170.121 260.038 173.33C260.686 176.808 258.06 180.391 254.325 181.117C249.486 182.056 244.656 183.048 239.799 183.891C238.586 184.1 238.295 184.578 238.182 185.721C236.708 200.321 235.138 214.908 233.664 229.504C233.108 235.065 230.512 239.56 226.316 243.217Z" fill="#2D427F"/>
<path d="M150.13 196.7C151.964 199.5 154.203 201.834 157.377 203.13C162.825 205.347 169.117 203.426 172.847 198.382C173.256 197.834 173.634 197.265 174.03 196.708C174.616 196.501 175.258 196.51 175.838 196.734C187.729 200.156 197.451 206.704 204.721 216.782C205.19 217.439 205.677 218.143 205.36 219.047C204.719 222.607 204.077 226.169 203.434 229.734C203.351 230.204 203.264 230.678 203.216 231.152C203.073 232.504 203.616 233.487 204.99 233.704C206.364 233.921 207.212 233.182 207.477 231.839C208.273 227.817 209.09 223.8 209.816 219.765C211.647 209.613 213.434 199.456 215.238 189.3C215.89 188.734 216.651 188.947 217.382 189.013C221.84 189.421 226.293 189.876 230.742 190.378C231.816 190.5 233.234 190.469 232.942 192.278C232.177 200.104 231.408 207.945 230.634 215.8C230.199 220.295 229.599 224.782 229.203 229.278C228.503 237.36 222.499 242.843 214.329 242.943C179.699 243.378 145.064 243.021 110.417 243.117C102.321 243.143 96.5036 238.408 95.1079 230.695C94.6732 228.413 94.5644 226.074 94.321 223.739C93.2804 213.721 92.2456 203.704 91.2167 193.687C91.1775 193.347 91.2166 193 91.1905 192.661C90.7079 191.178 91.5862 190.556 92.8079 190.434C97.6514 189.952 102.473 189.308 107.33 188.965C107.969 188.917 108.577 188.965 108.882 189.669C110.273 197.547 111.625 205.434 113.06 213.304C114.16 219.347 115.36 225.378 116.538 231.413C116.812 232.839 117.512 233.943 119.147 233.674C120.925 233.378 121.138 232.004 120.886 230.517C120.208 226.682 119.495 222.856 118.795 219.021C118.469 217.947 119.117 217.182 119.664 216.413C126.882 206.561 136.456 200.121 148.138 196.747C148.782 196.6 149.451 196.352 150.13 196.7Z" fill="#A2B4DD"/>
<path d="M192.473 125.156C193.069 130.113 195.808 133.417 200.564 135.026C201.599 135.374 202.682 135.587 203.721 135.926C206.86 136.956 207.764 139.161 207.634 142.126C207.525 144.813 205.025 146.787 202.16 146.908C200.456 146.969 199.377 147.643 199.116 149.517C196.577 167.139 185.016 179.343 167.443 181.995C145.912 185.239 127.608 170.295 125.082 149.856C124.821 147.756 123.777 147.139 121.843 147C117.595 146.695 115.256 142.565 117.09 138.804C117.96 137.065 119.443 136.195 121.251 135.761C123.317 135.256 125.39 134.743 127.095 133.369C130.025 131.004 131.76 128.03 131.751 124.174C131.751 121.359 131.751 118.548 131.751 115.739C131.709 114.57 131.941 113.406 132.43 112.343C133.564 110.043 135.173 109.43 137.647 110.261C153.911 115.722 170.18 115.73 186.456 110.287C189.369 109.309 191.673 110.722 192.186 113.848C192.242 114.117 192.274 114.39 192.282 114.665C192.295 116.322 192.256 123.335 192.473 125.156Z" fill="#FBC6AE"/>
<path d="M202.886 118.865C202.886 121.039 202.808 121.082 202.843 122.2C202.908 124.456 202.873 126.722 202.843 128.982C202.843 130.922 202.49 131.13 200.669 130.43C198.438 129.561 196.703 126.922 196.677 124.239C196.651 121.291 196.677 118.343 196.677 115.395C196.682 113.123 195.974 110.907 194.654 109.058C193.333 107.209 191.467 105.82 189.316 105.087C188.447 104.795 187.803 105.126 187.143 105.382C181.615 107.547 175.81 108.921 169.899 109.465C159.364 110.478 149.029 109.813 139.064 106.078C136.138 104.978 133.847 105.082 131.521 106.991C129.195 108.9 127.656 111.365 127.504 114.522C127.325 118.408 127.938 122.317 127.134 126.191C126.986 127.072 126.623 127.902 126.077 128.608C124.951 129.913 123.404 131.265 121.76 130.869C120.721 130.617 121.325 128.661 121.36 127.495C121.456 122.452 120.969 117.4 122.095 112.374C123.146 107.49 125.103 102.846 127.864 98.6824C128.536 97.7464 128.845 96.5986 128.734 95.452C129.36 94.7216 130.23 94.8694 131.034 94.8607C137.488 94.7456 143.895 93.7465 150.077 91.8911C170.099 86.0564 192.086 95.752 201.299 114.474C201.99 115.895 202.256 117.439 202.886 118.865Z" fill="#6F3A4E"/>
<path d="M202.886 118.865C202.134 118.661 202.177 117.908 201.947 117.391C195.351 102.643 184.156 93.8432 168.173 91.2824C161.873 90.2693 155.669 90.8476 149.534 92.6215C142.779 94.6039 135.764 95.5581 128.725 95.4519C126.508 93 125.206 89.8577 125.038 86.5563C124.964 85.5302 125.295 85.0346 126.408 85.1041C136.256 85.7302 145.538 82.6085 155.043 80.8694C166.325 78.8041 176.756 81.2172 186.121 87.9085C195.838 94.865 201.108 104.474 202.795 116.213C202.875 117.094 202.905 117.98 202.886 118.865Z" fill="#8D3341"/>
<path d="M109.443 176.73C109.412 180.96 106.451 183.539 102.325 182.773C91.7731 180.817 81.234 178.795 70.6905 176.778C69.3862 176.53 68.0122 176.204 68.2862 174.369C68.547 172.63 69.6558 172.195 71.2819 172.534C76.8471 173.634 82.434 174.643 87.9905 175.782C88.5785 175.933 89.1962 175.924 89.7795 175.756C90.3628 175.587 90.8905 175.266 91.3079 174.826C95.2775 171.2 99.9253 169.904 105.177 171.199C107.943 171.865 109.464 173.969 109.443 176.73Z" fill="#FBC6AE"/>
<path d="M222.238 170.743C224.193 170.674 226.141 170.998 227.968 171.697C229.795 172.395 231.463 173.453 232.873 174.808C233.287 175.254 233.814 175.58 234.397 175.752C234.981 175.924 235.6 175.936 236.19 175.787C241.686 174.656 247.212 173.669 252.712 172.591C254.164 172.308 255.294 172.391 255.681 174.139C256.068 175.887 255.003 176.439 253.582 176.713C242.829 178.778 232.082 180.878 221.316 182.887C218.295 183.452 215.664 181.504 214.899 178.417C214.134 175.33 215.503 172.465 218.377 171.391C219.603 170.9 220.919 170.679 222.238 170.743Z" fill="#FBC6AE"/>
<path d="M150.156 196.7C144.834 198.269 139.63 200.1 134.895 203.091C128.808 206.93 123.56 211.608 119.512 217.591C119.159 218.01 118.917 218.511 118.808 219.048C117.604 215.934 117.895 213.187 119.834 210.248C126.495 200.135 135.438 193.143 146.908 189.313C148.456 188.795 149.03 189.056 148.843 190.752C148.612 192.865 149.469 194.774 150.156 196.7Z" fill="#FBD3BF"/>
<path d="M205.403 219.047C203.395 214.908 200.243 211.656 196.869 208.691C191.148 203.569 184.364 199.778 177.003 197.591C176.025 197.304 175.051 197.004 174.073 196.721C174.903 194.752 175.586 192.713 175.534 190.574C175.49 188.9 176.247 189.013 177.364 189.382C186.212 192.334 193.769 197.23 199.856 204.334C201.508 206.26 202.842 208.434 204.386 210.421C206.486 213.169 206.603 215.991 205.403 219.047Z" fill="#FBD3BF"/>
<path d="M108.93 189.691C106.086 189.217 103.321 190.104 100.508 190.221C98.1601 190.317 95.8254 190.891 93.4514 190.926C92.2515 190.926 91.2558 191.186 91.234 192.665C90.6862 190.608 90.7601 188.478 90.4644 186.391C90.2862 185.134 90.9384 185.056 91.9297 185.26C94.8732 185.86 97.8297 186.4 100.778 187C102.834 187.413 104.895 187.469 106.817 186.565C108.151 185.952 108.647 186.173 108.634 187.656C108.678 188.341 108.777 189.022 108.93 189.691Z" fill="#FBD3BF"/>
<path d="M232.968 192.3C232.825 191.4 232.169 191.065 231.382 190.995C226.942 190.561 222.503 190.156 218.068 189.721C217.129 189.63 216.199 189.461 215.264 189.33C215.247 189.126 215.247 188.921 215.264 188.717C215.699 186.178 215.725 186.156 218.212 186.926C219.792 187.379 221.458 187.445 223.068 187.117C226.086 186.587 229.095 186.004 232.082 185.343C233.342 185.065 233.912 185.295 233.721 186.669C233.46 188.517 233.229 190.4 232.968 192.3Z" fill="#FBD3BF"/>
<path d="M91.8384 168.748C89.8862 170.965 87.7167 171.626 85.1123 170.734C84.1428 170.404 83.2645 170.069 83.5775 168.778C83.8732 167.578 84.7123 167.387 85.7905 167.6C87.7862 167.995 89.7906 168.361 91.8384 168.748Z" fill="#FBC6AE"/>
<path d="M232.36 168.752L238.769 167.543C239.916 167.326 240.377 168.021 240.616 168.965C240.895 170.061 240.112 170.382 239.312 170.669C236.599 171.63 234.299 171.052 232.36 168.752Z" fill="#FBC6AE"/>
<path d="M161.986 176.647C159.169 176.678 156.369 176.539 153.669 175.643C148.951 174.074 147.634 170.765 149.921 166.33C152.529 161.313 157.803 158.23 163.447 158.865C169.212 159.517 173.051 162.887 175.086 168.256C176.169 171.108 174.769 173.852 171.651 175.213C168.534 176.574 165.286 176.647 161.986 176.647Z" fill="#2D427F"/>
<path d="M182.66 133.904C184.109 133.958 185.483 134.56 186.506 135.588C187.528 136.616 188.122 137.994 188.169 139.443C188.169 142.248 185.203 145.165 182.425 145.095C179.647 145.026 176.886 142.052 176.964 139.387C177.043 136.721 179.912 133.874 182.66 133.904Z" fill="#2D427F"/>
<path d="M141.517 133.952C144.317 133.913 147.169 136.591 147.234 139.361C147.317 142.039 144.499 144.987 141.773 145.074C139.138 145.161 135.995 142.248 135.943 139.669C135.952 138.181 136.538 136.753 137.577 135.687C138.617 134.621 140.028 133.999 141.517 133.952Z" fill="#2D427F"/>
<path d="M135.717 156.378H135.308C133.251 156.3 131.425 155.074 131.695 153.817C132.082 151.991 133.56 151.43 135.26 151.395C136.482 151.395 137.751 151.191 138.847 151.93C139.586 152.426 140.286 152.961 140.303 154.013C140.303 155.139 139.503 155.491 138.721 155.93C137.769 156.456 136.738 156.369 135.717 156.378Z" fill="#FB6351"/>
<path d="M188.251 156.382C187.382 156.356 186.473 156.443 185.643 155.995C184.812 155.548 183.86 155.217 183.903 153.982C183.938 152.852 184.682 152.208 185.56 151.839C186.406 151.467 187.321 151.277 188.245 151.281C189.17 151.286 190.083 151.485 190.925 151.865C191.725 152.217 192.503 152.813 192.525 153.826C192.551 154.948 191.656 155.461 190.847 155.961C190.038 156.461 189.138 156.369 188.251 156.382Z" fill="#FB6351"/>
<path d="M153.864 171.074C152.903 170.248 153.395 169.335 153.729 168.465C155.003 165.174 158.447 162.982 162.199 163.043C165.951 163.104 169.212 165.217 170.46 168.461C170.799 169.33 171.273 170.256 170.325 171.069C169.725 170.932 169.161 170.67 168.669 170.3C164.286 167.642 159.9 167.642 155.512 170.3C155.023 170.67 154.462 170.934 153.864 171.074Z" fill="#EF2748"/>
<path d="M153.864 171.074C158.212 166.643 165.99 166.643 170.334 171.074C169.077 172.091 167.534 171.982 166.064 172.152C162.681 172.493 159.268 172.415 155.903 171.917C155.148 171.874 154.429 171.577 153.864 171.074Z" fill="#E85C5B"/>
<path d="M171.208 190.952C171.245 193.349 170.331 195.663 168.665 197.388C166.999 199.112 164.718 200.106 162.321 200.152C159.925 200.187 157.613 199.272 155.889 197.608C154.165 195.944 153.17 193.665 153.121 191.269L153.086 189.095C154.07 190.168 155.271 191.02 156.609 191.595C157.947 192.17 159.391 192.454 160.847 192.43L163.795 192.378C165.187 192.356 166.559 192.051 167.83 191.482C169.101 190.914 170.242 190.093 171.186 189.069L171.208 190.952Z" fill="#FBC6AE"/>
<path d="M171.173 189.073C171.099 189.152 171.03 189.226 170.956 189.295L170.812 189.447C168.936 191.283 166.428 192.33 163.803 192.373L160.856 192.426C159.477 192.45 158.109 192.196 156.83 191.68C155.552 191.164 154.391 190.396 153.416 189.421C153.343 189.352 153.273 189.278 153.199 189.204C153.125 189.13 153.125 189.13 153.095 189.091V189.034V188.6C153.086 188.232 153.103 187.865 153.143 187.5C153.175 187.197 153.223 186.897 153.286 186.6C153.521 186.33 153.973 186.404 154.403 186.491C159.51 187.528 164.774 187.519 169.877 186.465C170.282 186.378 170.747 186.295 170.977 186.547C171.055 186.904 171.109 187.266 171.138 187.63C171.138 187.843 171.173 188.065 171.177 188.287L171.173 189.073Z" fill="#E43149"/>
</g>
<defs>
<clipPath id="clip0_568_1043">
<rect width="323.365" height="323.365" fill="white" transform="translate(0.364624)"/>
</clipPath>
</defs>
</svg>
